<?xml version="1.0" encoding="iso-8859-1"?>
<!-- Generator: Adobe Illustrator 18.0.0, SVG Export Plug-In . SVG Version: 6.00 Build 0)  -->
<!DOCTYPE svg PUBLIC "-//W3C//DTD SVG 1.1//EN" "http://www.w3.org/Graphics/SVG/1.1/DTD/svg11.dtd">
<svg version="1.1" id="Capa_1" xmlns="http://www.w3.org/2000/svg" xmlns:xlink="http://www.w3.org/1999/xlink" x="0px" y="0px"
	 viewBox="0 0 298 298" style="enable-background:new 0 0 298 298;" xml:space="preserve">
<g>
	<path d="M273.25,64.395h-17.916V48.49c0-7.116-5.769-12.885-12.885-12.885h-25.804c-7.116,0-12.885,5.769-12.885,12.885v15.904
		H93.878v198H273.25c13.669,0,24.75-11.081,24.75-24.75v-148.5C298,75.476,286.919,64.395,273.25,64.395z M192,236.061
		c-40.068,0-72.667-32.598-72.667-72.666S151.932,90.728,192,90.728s72.666,32.599,72.666,72.667S232.069,236.061,192,236.061z"/>
	<path d="M192,130.728c-18.013,0-32.667,14.654-32.667,32.667c0,18.012,14.654,32.666,32.667,32.666
		c18.012,0,32.666-14.654,32.666-32.666C224.666,145.382,210.012,130.728,192,130.728z"/>
	<path d="M48.878,64.395H24.75C11.081,64.395,0,75.476,0,89.145v148.5c0,13.669,11.081,24.75,24.75,24.75h24.128V64.395z"/>
</g>
<g>
</g>
<g>
</g>
<g>
</g>
<g>
</g>
<g>
</g>
<g>
</g>
<g>
</g>
<g>
</g>
<g>
</g>
<g>
</g>
<g>
</g>
<g>
</g>
<g>
</g>
<g>
</g>
<g>
</g>
</svg>
