<?xml version="1.0" encoding="iso-8859-1"?>
<!-- Generator: Adobe Illustrator 19.0.0, SVG Export Plug-In . SVG Version: 6.00 Build 0)  -->
<svg version="1.1" id="Capa_1" xmlns="http://www.w3.org/2000/svg" xmlns:xlink="http://www.w3.org/1999/xlink" x="0px" y="0px"
	 viewBox="0 0 512.002 512.002" style="enable-background:new 0 0 512.002 512.002;" xml:space="preserve">
<g>
	<g>
		<path d="M507.605,442.926c-10.832-10.832-76.394-75.676-104.057-103.119l43.174-43.175c4.293-4.293,5.576-10.748,3.254-16.357
			c-2.323-5.608-7.796-9.266-13.866-9.266H286.019c-8.289,0-15.009,6.72-15.009,15.009V436.11h-0.001
			c0,6.071,3.657,11.544,9.266,13.866c5.609,2.322,12.065,1.04,16.357-3.254c0,0,26.08-26.081,43.172-43.155l103.075,103.99
			c5.856,5.908,15.395,5.925,21.273,0.047l43.453-43.452c2.815-2.815,4.397-6.632,4.397-10.612
			C512.002,449.558,510.421,445.741,507.605,442.926z M453.584,475.719L351.531,372.758l-1.067-1.067
			c-2.931-2.929-6.769-4.393-10.609-4.393c-3.834,0-7.67,1.461-10.599,4.382c-5.831,5.816-17.342,17.318-28.228,28.2v-98.852h98.847
			l-28.198,28.197c-2.815,2.815-4.397,6.633-4.397,10.613c0,3.98,1.581,7.799,4.397,10.613
			c10.894,10.894,76.626,75.906,104.057,103.118L453.584,475.719z"/>
	</g>
</g>
<g>
	<g>
		<path d="M507.603,47.85L464.152,4.398c-2.816-2.816-6.633-4.397-10.613-4.397c-0.011,0-0.022,0-0.033,0
			c-3.991,0.009-7.817,1.608-10.626,4.443l-103.084,104L296.63,65.28c-4.292-4.294-10.75-5.575-16.357-3.253
			c-5.608,2.323-9.266,7.796-9.266,13.866v150.091c0,8.289,6.72,15.009,15.009,15.009h150.091c6.07,0,11.543-3.657,13.866-9.266
			c2.322-5.608,1.039-12.064-3.254-16.357l-43.174-43.175c27.382-27.162,93.177-92.238,104.057-103.119
			C513.464,63.214,513.464,53.712,507.603,47.85z M371.677,161.551c-2.815,2.815-4.397,6.632-4.397,10.613
			c0,3.98,1.581,7.799,4.397,10.613l28.198,28.197h-98.847v-98.847l28.2,28.199c2.815,2.814,6.631,4.394,10.61,4.394
			c0.003,0,0.006,0,0.008,0c3.982-0.002,7.802-1.587,10.614-4.406L453.585,36.284l22.148,22.148
			C448.618,85.332,382.569,150.659,371.677,161.551z"/>
	</g>
</g>
<g>
	<g>
		<path d="M231.725,62.027c-5.61-2.324-12.065-1.039-16.357,3.253l-43.148,43.148c-0.325-0.329-0.656-0.664-0.994-1.006
			C148.94,84.874,96.749,32.071,69.075,4.398c-5.861-5.862-15.364-5.861-21.226,0L4.396,47.85c-5.862,5.862-5.862,15.364,0,21.226
			c8.079,8.078,76.051,75.339,104.056,103.12l-43.173,43.173c-4.293,4.293-5.576,10.748-3.254,16.357
			c2.323,5.608,7.797,9.266,13.866,9.266h150.091c8.289,0,15.009-6.72,15.009-15.009V75.893
			C240.991,69.822,237.334,64.35,231.725,62.027z M210.973,210.974h-98.847l28.198-28.198c5.861-5.862,5.861-15.364,0-21.226
			c-9.397-9.397-75.981-75.288-104.053-103.123l22.179-22.179c28.793,28.908,71.762,72.38,91.428,92.276
			c6.69,6.769,11.002,11.131,11.672,11.801c2.815,2.815,6.632,4.396,10.612,4.396s7.798-1.581,10.612-4.396l28.197-28.197V210.974z"
			/>
	</g>
</g>
<g>
	<g>
		<path d="M225.982,271.01H75.891c-6.071,0-11.544,3.657-13.866,9.266c-2.322,5.608-1.039,12.064,3.254,16.357l43.173,43.174
			c-27.228,27.011-96.023,95.087-104.056,103.12c-5.862,5.862-5.862,15.364,0,21.226l43.452,43.452
			c5.858,5.858,15.365,5.861,21.226,0c9.359-9.359,75.306-76.012,103.121-104.055l43.173,43.172
			c4.292,4.293,10.748,5.576,16.357,3.254c5.608-2.323,9.266-7.797,9.266-13.866V286.019
			C240.991,277.73,234.271,271.01,225.982,271.01z M210.973,399.875l-28.197-28.197c-5.861-5.862-15.363-5.861-21.226,0
			C152.227,381,85.773,448.165,58.429,475.733L36.27,453.575c26.722-26.497,94.685-93.756,104.053-103.123
			c5.862-5.862,5.862-15.364,0-21.226l-28.197-28.197h98.847V399.875z"/>
	</g>
</g>
<g>
</g>
<g>
</g>
<g>
</g>
<g>
</g>
<g>
</g>
<g>
</g>
<g>
</g>
<g>
</g>
<g>
</g>
<g>
</g>
<g>
</g>
<g>
</g>
<g>
</g>
<g>
</g>
<g>
</g>
</svg>
